:FULLY-SPECIFIED
:FORCE-ALL-JOINTS-BE-3DOF
:DEGREES
275
root 9.99124 16.8698 1.96129 5.69304 -3.38827 2.10588
lfemur -16.1844 6.04891 -28.6443
ltibia 29.1197 0 0
lfoot -17.8818 6.43967 0
ltoes -1.11702 0 0
rfemur -27.4343 -1.76267 17.7066
rtibia 62.505 0 0
rfoot -18.6938 -11.7227 0
rtoes -17.4456 0 0
lowerback -5.08109 -1.79112 -3.04914
upperback -0.362569 -2.27201 2.13555
thorax 2.68381 -1.18223 3.7486
lowerneck -22.0769 -3.67331 -11.2622
upperneck 21.8719 -4.29483 11.2642
head 11.2549 -1.50724 5.3712
lclavicle 1.20283e-14 -1.83176e-14 0
lhumerus -20.1124 -14.2681 86.9975
lradius 24.1008 0 0
lwrist 0.285569 0 0
lhand -12.9797 -24.3064 0
lfingers 7.12502 0 0
lthumb 13.1127 5.26032 0
rclavicle 1.20283e-14 -1.83176e-14 0
rhumerus -45.6647 8.28566 -83.0223
rradius 42.4924 0 0
rwrist -23.5851 0 0
rhand -29.3343 -22.7901 0
rfingers 7.12502 0 0
rthumb -2.67461 -52.7535 0
276
root 9.99673 16.8601 2.03645 5.63354 -3.15564 2.12604
lfemur -15.8472 5.93707 -28.6636
ltibia 29.1583 0 0
lfoot -18.0544 6.32503 0
ltoes -1.1261 0 0
rfemur -28.0746 -1.81872 17.7838
rtibia 62.0941 0 0
rfoot -19.0665 -11.8617 0
rtoes -18.0373 0 0
lowerback -5.06415 -1.90433 -3.08623
upperback -0.337937 -2.422 2.15913
thorax 2.7141 -1.25861 3.78251
lowerneck -22.0892 -3.6558 -11.1831
upperneck 21.9647 -4.27385 11.1535
head 11.2841 -1.50465 5.32227
lclavicle 1.27169e-14 -1.49677e-14 0
lhumerus -19.538 -14.1908 86.8249
lradius 24.0954 0 0
lwrist 0.142481 0 0
lhand -12.9252 -24.2847 0
lfingers 7.12502 0 0
lthumb 13.1653 5.27888 0
rclavicle 1.27169e-14 -1.49677e-14 0
rhumerus -45.6973 8.37321 -83.0461
rradius 42.5349 0 0
rwrist -23.7514 0 0
rhand -29.4343 -22.8586 0
rfingers 7.12502 0 0
rthumb -2.77112 -52.8205 0
277
root 9.99374 16.859 1.98856 5.63214 -3.32586 2.09763
lfemur -16.1414 6.0291 -28.6385
ltibia 29.3452 0 0
lfoot -17.9866 6.35771 0
ltoes -1.08821 0 0
rfemur -27.7079 -1.84321 17.7999
rtibia 62.4978 0 0
rfoot -18.777 -11.8669 0
rtoes -18.2057 0 0
lowerback -5.05864 -1.83017 -3.04716
upperback -0.344233 -2.32516 2.14928
thorax 2.69295 -1.20926 3.7585
lowerneck -22.1094 -3.66855 -11.1574
upperneck 21.9487 -4.29038 11.128
head 11.2832 -1.51244 5.30481
lclavicle 1.25731e-14 -1.66979e-14 0
lhumerus -19.8435 -14.1118 86.8702
lradius 24.0579 0 0
lwrist 0.106751 0 0
lhand -12.7714 -24.2512 0
lfingers 7.12502 0 0
lthumb 13.3136 5.30356 0
rclavicle 1.25731e-14 -1.66979e-14 0
rhumerus -45.6624 8.38572 -83.0708
rradius 42.5509 0 0
rwrist -23.7724 0 0
rhand -29.485 -22.7689 0
rfingers 7.12502 0 0
rthumb -2.82009 -52.73 0
278
root 10.0028 16.8563 2.14672 5.62093 -2.77365 2.18055
lfemur -15.2309 5.76115 -28.7085
ltibia 28.8571 0 0
lfoot -18.212 6.19513 0
ltoes -1.22229 0 0
rfemur -28.9003 -1.79828 17.7678
rtibia 61.1302 0 0
rfoot -19.5272 -11.93 0
rtoes -18.1618 0 0
lowerback -5.0697 -2.06686 -3.17134
upperback -0.327918 -2.63443 2.18197
thorax 2.75252 -1.36676 3.83617
lowerneck -22.0491 -3.63839 -11.1875
upperneck 22.0263 -4.25279 11.1375
head 11.2961 -1.49896 5.32262
lclavicle 1.35043e-14 -9.55822e-15 0
lhumerus -18.8389 -14.2981 86.6894
lradius 24.1662 0 0
lwrist 0.168056 0 0
lhand -13.1425 -24.3215 0
lfingers 7.12502 0 0
lthumb 12.9558 5.25434 0
rclavicle 1.35043e-14 -9.55822e-15 0
rhumerus -45.7877 8.40427 -83.0425
rradius 42.4977 0 0
rwrist -23.788 0 0
rhand -29.4626 -23.0284 0
rfingers 7.12502 0 0
rthumb -2.79846 -52.9898 0
279
root 10.0128 16.8565 2.34697 5.64406 -2.05405 2.29562
lfemur -14.0329 5.42824 -28.8018
ltibia 28.084 0 0
lfoot -18.4429 5.99014 0
ltoes -1.44269 0 0
rfemur -30.3382 -1.6966 17.6609
rtibia 59.1772 0 0
rfoot -20.3491 -11.9627 0
rtoes -17.8716 0 0
lowerback -5.09851 -2.36163 -3.34444
upperback -0.324202 -3.01797 2.21679
thorax 2.82041 -1.56202 3.93624
lowerneck -21.9414 -3.60951 -11.2741
upperneck 22.091 -4.21727 11.2053
head 11.2983 -1.48547 5.37152
lclavicle 1.47358e-14 3.53407e-16 0
lhumerus -17.6511 -14.631 86.5159
lradius 24.3425 0 0
lwrist 0.358332 0 0
lhand -13.7317 -24.4348 0
lfingers 7.12502 0 0
lthumb 12.3876 5.17438 0
rclavicle 1.47358e-14 3.53407e-16 0
rhumerus -45.9747 8.39485 -83.0049
rradius 42.373 0 0
rwrist -23.7204 0 0
rhand -29.4216 -23.3849 0
rfingers 7.12502 0 0
rthumb -2.75889 -53.3466 0
280
root 10.0221 16.8584 2.54708 5.68961 -1.31399 2.41422
lfemur -12.8258 5.0876 -28.8971
ltibia 27.2516 0 0
lfoot -18.6499 5.78614 0
ltoes -1.67758 0 0
rfemur -31.7588 -1.58046 17.528
rtibia 57.1257 0 0
rfoot -21.1344 -11.9712 0
rtoes -17.4094 0 0
lowerback -5.13451 -2.65877 -3.52513
upperback -0.330021 -3.40403 2.2504
thorax 2.88394 -1.75844 4.03869
lowerneck -21.8156 -3.58323 -11.3878
upperneck 22.1351 -4.18498 11.3051
head 11.2914 -1.47229 5.4359
lclavicle 1.60363e-14 1.10823e-14 0
lhumerus -16.494 -14.9941 86.3658
lradius 24.5326 0 0
lwrist 0.584993 0 0
lhand -14.3902 -24.5645 0
lfingers 7.12502 0 0
lthumb 11.7527 5.08195 0
rclavicle 1.60363e-14 1.10823e-14 0
rhumerus -46.1736 8.37008 -82.9633
rradius 42.223 0 0
rwrist -23.6058 0 0
rhand -29.3638 -23.7825 0
rfingers 7.12502 0 0
rthumb -2.70304 -53.7449 0
281
root 10.0291 16.8608 2.70479 5.74565 -0.700421 2.50776
lfemur -11.8883 4.79645 -28.9732
ltibia 26.5861 0 0
lfoot -18.8036 5.62651 0
ltoes -1.8551 0 0
rfemur -32.8994 -1.49215 17.4178
rtibia 55.4627 0 0
rfoot -21.7751 -11.9621 0
rtoes -16.8494 0 0
lowerback -5.16719 -2.90254 -3.6721
upperback -0.342308 -3.72083 2.27946
thorax 2.93045 -1.91939 4.12348
lowerneck -21.701 -3.5609 -11.4991
upperneck 22.1512 -4.15708 11.4102
head 11.2769 -1.45975 5.50015
lclavicle 1.71746e-14 2.06736e-14 0
lhumerus -15.5819 -15.2707 86.255
lradius 24.6825 0 0
lwrist 0.755455 0 0
lhand -14.969 -24.684 0
lfingers 7.12502 0 0
lthumb 11.1945 4.99531 0
rclavicle 1.71746e-14 2.06736e-14 0
rhumerus -46.3345 8.34257 -82.923
rradius 42.0944 0 0
rwrist -23.4806 0 0
rhand -29.2909 -24.1656 0
rfingers 7.12502 0 0
rthumb -2.63262 -54.1287 0
282
root 10.0321 16.8625 2.77788 5.80028 -0.360292 2.54763
lfemur -11.4992 4.61202 -29.009
ltibia 26.3134 0 0
lfoot -18.8745 5.55467 0
ltoes -1.90341 0 0
rfemur -33.497 -1.47397 17.379
rtibia 54.6751 0 0
rfoot -22.1629 -11.9417 0
rtoes -16.2659 0 0
lowerback -5.186 -3.03722 -3.74401
upperback -0.357996 -3.89661 2.30063
thorax 2.94724 -2.00827 4.17058
lowerneck -21.6268 -3.54386 -11.5785
upperneck 22.1318 -4.13474 11.4943
head 11.2564 -1.44818 5.54866
lclavicle 1.79195e-14 2.71728e-14 0
lhumerus -15.1289 -15.3442 86.1995
lradius 24.7382 0 0
lwrist 0.777133 0 0
lhand -15.3193 -24.7665 0
lfingers 7.12502 0 0
lthumb 10.8568 4.93274 0
rclavicle 1.79195e-14 2.71728e-14 0
rhumerus -46.4077 8.32494 -82.8893
rradius 42.0334 0 0
rwrist -23.3808 0 0
rhand -29.2046 -24.4782 0
rfingers 7.12502 0 0
rthumb -2.5493 -54.4425 0
